<svg xmlns="http://www.w3.org/2000/svg" viewBox="0 0 256 128">
  <!-- Logo HTML à gauche -->
  <g transform="translate(0,0) scale(0.25)">
    <path d="M108.4 0h23v22.8h21.2V0h23v69h-23V46h-21v23h-23.2M206 23h-20.3V0h63.7v23H229v46h-23M259.5 0h24.1l14.8 24.3L313.2 0h24.1v69h-23V34.8l-16.1 24.8l-16.1-24.8v34.2h-22.6M348.7 0h23v46.2h32.6V69h-55.6"/>
    <path fill="#e44d26" d="M107.6 471l-33-370.4h362.8l-33 370.2L255.7 512"/>
    <path fill="#f16529" d="M256 480.5V131H404.3L376 447"/>
    <path fill="#ebebeb" d="M142 176.3h114v45.4h-64.2l4.2 46.5h60v45.3H154.4M156.4 336.3H202l3.2 36.3 50.8 13.6v47.4l-93.2-26"/>
    <path fill="#fff" d="M369.6 176.3H255.8v45.4h109.6M361.3 268.2H255.8v45.4h56l-5.3 59-50.7 13.6v47.2l93-25.8"/>
  </g>
  
  <!-- Logo CSS à droite -->
  <g transform="translate(128,0) scale(0.128)">
    <path id="bg" fill="#639" d="M0 0H840A160 160 0 0 1 1000 160V840A160 160 0 0 1 840 1000H160A160 160 0 0 1 0 840V0Z" />
    <path id="fg" fill="#fff" d="m358.1,920c-64.23-.06-103.86-36.23-103.1-102.79,0,0,0-168.39,0-168.39,0-33.74,9.88-59.4,29.64-76.96,35.49-34.19,117.83-36.27,152.59.52,21.42,18.89,29.5,57.48,27.58,93.49h-73.72c.56-14.15-.19-35.58-8.51-43.65-10.81-14.63-39.36-12.91-46.91,2.32-4.64,8.26-6.96,20.49-6.96,36.67v146.18c0,30.65,10.65,46.15,31.96,46.49,9.96,0,17.53-3.62,22.68-10.85,7.19-8.58,8.31-27.58,7.73-41.32h73.72c5.04,70.07-36.32,119.16-106.71,118.29Zm234.04,0c-71.17.98-103.01-49.66-101.04-118.29h69.59c-1.93,29.92,8.35,57.17,32.99,55.27,10.99,0,18.73-3.44,23.2-10.33,8.5-12.59,10.09-48.95-2.06-63.02-8.49-13.55-39.03-25.51-55.16-33.57-23.03-11.02-39.61-24.1-49.75-39.26-22.87-33.64-20.75-107.48,11.34-137.4,31.18-36.92,112.61-38.62,143.82-.77,19.25,19.51,27.66,57.9,26.03,93.23h-67.02c.57-14.52-.8-37.95-6.44-46.49-3.95-7.23-11.43-10.85-22.42-10.85-19.59,0-29.38,11.71-29.38,35.12.21,24.86,9.9,35.06,32.48,45.45,29.24,11.36,66.42,30.76,79.9,54.24,40.2,71.54,12.62,180.82-86.09,176.65Zm224.76,0c-71.17.98-103.01-49.66-101.04-118.29h69.59c-1.93,29.92,8.35,57.17,32.99,55.27,10.99,0,18.73-3.44,23.2-10.33,8.5-12.59,10.09-48.95-2.06-63.02-8.49-13.55-39.03-25.51-55.16-33.57-23.03-11.02-39.61-24.1-49.75-39.26-22.87-33.64-20.75-107.48,11.34-137.4,31.18-36.92,112.61-38.62,143.82-.77,19.25,19.51,27.66,57.9,26.03,93.23h-67.02c.57-14.52-.8-37.95-6.44-46.49-3.95-7.23-11.43-10.85-22.42-10.85-19.59,0-29.38,11.71-29.38,35.12.21,24.86,9.9,35.06,32.48,45.45,29.24,11.36,66.42,30.76,79.9,54.24,40.2,71.54,12.62,180.82-86.09,176.65Z" />
  </g>
</svg>

